HIERARCHY
ROOT Hips
{
	OFFSET -1.602300 6.242603 43.997101
	CHANNELS 6 Xposition Yposition Zposition Zrotation Xrotation Yrotation
	JOINT Chest
	{
		OFFSET -0.204900 1.598101 7.917301
		CHANNELS 6 Xposition Yposition Zposition Zrotation Xrotation Yrotation
		JOINT Chest2
		{
			OFFSET 0.000000 0.000000 3.404099
			CHANNELS 6 Xposition Yposition Zposition Zrotation Xrotation Yrotation
			JOINT Neck
			{
				OFFSET 0.000000 0.000000 7.928600
				CHANNELS 6 Xposition Yposition Zposition Zrotation Xrotation Yrotation
				JOINT Head
				{
					OFFSET 0.000000 0.000000 2.173897
					CHANNELS 6 Xposition Yposition Zposition Zrotation Xrotation Yrotation
					End Site
					{
						OFFSET 0.000000 0.000001 10.404503
					}
				}
			}
			JOINT LeftCollar
			{
				OFFSET 2.833800 -1.396299 4.843300
				CHANNELS 6 Xposition Yposition Zposition Zrotation Xrotation Yrotation
				JOINT LeftShoulder
				{
					OFFSET 4.363600 0.000000 0.000000
					CHANNELS 6 Xposition Yposition Zposition Zrotation Xrotation Yrotation
					JOINT LeftElbow
					{
						OFFSET 0.000000 -0.000001 -10.306900
						CHANNELS 6 Xposition Yposition Zposition Zrotation Xrotation Yrotation
						JOINT LeftWrist
						{
							OFFSET 0.000000 -0.000001 -12.404900
							CHANNELS 6 Xposition Yposition Zposition Zrotation Xrotation Yrotation
							End Site
							{
								OFFSET 0.000000 0.000000 -2.173901
							}
						}
					}
				}
			}
			JOINT RightCollar
			{
				OFFSET -2.354800 -1.897200 5.063099
				CHANNELS 6 Xposition Yposition Zposition Zrotation Xrotation Yrotation
				JOINT RightShoulder
				{
					OFFSET -4.375800 0.000000 0.000000
					CHANNELS 6 Xposition Yposition Zposition Zrotation Xrotation Yrotation
					JOINT RightElbow
					{
						OFFSET 0.000000 -0.000001 -10.005001
						CHANNELS 6 Xposition Yposition Zposition Zrotation Xrotation Yrotation
						JOINT RightWrist
						{
							OFFSET 0.000000 -0.000001 -13.174900
							CHANNELS 6 Xposition Yposition Zposition Zrotation Xrotation Yrotation
							End Site
							{
								OFFSET 0.000000 0.000000 -2.173901
							}
						}
					}
				}
			}
		}
	}
	JOINT LeftHip
	{
		OFFSET 2.240600 0.386800 -2.614101
		CHANNELS 6 Xposition Yposition Zposition Zrotation Xrotation Yrotation
		JOINT LeftKnee
		{
			OFFSET 0.000000 -0.000001 -18.592899
			CHANNELS 6 Xposition Yposition Zposition Zrotation Xrotation Yrotation
			JOINT LeftAnkle
			{
				OFFSET 0.000000 -0.000001 -18.765800
				CHANNELS 6 Xposition Yposition Zposition Zrotation Xrotation Yrotation
				End Site
				{
					OFFSET 0.000000 -8.655000 0.000000
				}
			}
		}
	}
	JOINT RightHip
	{
		OFFSET -2.014900 -0.220900 -2.615898
		CHANNELS 6 Xposition Yposition Zposition Zrotation Xrotation Yrotation
		JOINT RightKnee
		{
			OFFSET 0.000000 -0.000001 -18.633900
			CHANNELS 6 Xposition Yposition Zposition Zrotation Xrotation Yrotation
			JOINT RightAnkle
			{
				OFFSET 0.000000 -0.000001 -18.285101
				CHANNELS 6 Xposition Yposition Zposition Zrotation Xrotation Yrotation
				End Site
				{
					OFFSET 0.000000 -7.524500 0.000000
				}
			}
		}
	}
}
MOTION
Frames: 5
Frame Time: 0.041667
-5.876700 25.213402 9.080410 6.134661 2.943733 4.284751 -0.204901 1.598099 7.917311 -6.620802 -3.818782 -2.618242 -0.000000 0.000003 3.404098 -1.429866 -15.556084 -1.938768 -0.000000 -0.000001 7.928602 3.987643 16.099415 -3.632938 0.000000 -0.000000 2.173898 0.805133 -4.785069 1.843068 2.833798 -1.396300 4.843302 46.194393 -16.277937 -6.444438 4.363601 0.000011 -0.000006 -92.944367 0.182676 -134.947695 -0.000002 0.000004 -10.306894 260.071228 -160.095167 191.919464 0.000004 0.000004 -12.404895 -508.491847 183.122590 -149.831059 -2.354801 -1.897202 5.063099 3.681268 10.559771 -2.685620 -4.375799 0.000001 -0.000013 71.977203 -7.265109 165.761683 0.000002 0.000004 -10.004991 -254.872006 -171.947021 -199.271548 -0.000005 0.000003 -13.174899 -186.533846 -159.296144 155.848388 2.240598 0.386800 -2.614098 138.200914 -33.565500 106.441846 0.000000 -0.000002 -18.592894 -113.320399 32.861451 132.892778 -0.000001 0.000001 -18.765799 5.358289 30.087284 18.301053 -2.014898 -0.220899 -2.615896 -117.973391 -16.029713 -95.088302 -0.000001 0.000004 -18.633884 184.579688 28.105989 -180.609053 -0.000006 -0.000006 -18.285084 -6.463487 36.024129 -217.179949
-5.876800 25.213404 9.080311 6.125870 2.938878 4.283757 -0.204901 1.598099 7.917303 -6.611675 -3.800642 -2.608913 -0.000000 0.000004 3.404100 -1.420122 -15.570275 -1.938308 -0.000000 0.000003 7.928596 3.867701 16.086946 -3.561153 -0.000001 0.000001 2.173895 0.871128 -4.795539 1.778673 2.833798 -1.396298 4.843300 46.128386 -16.255080 -6.555643 4.363599 0.000003 -0.000007 -92.879521 0.096224 -134.957680 -0.000001 0.000005 -10.306896 260.106226 -160.074076 191.947604 0.000006 0.000003 -12.404890 -508.562990 183.082565 -149.791840 -2.354801 -1.897199 5.063100 3.761320 10.619932 -2.707529 -4.375799 0.000003 -0.000020 71.891484 -7.300727 165.844684 0.000003 0.000001 -10.004992 -255.134203 -172.070715 -199.267873 -0.000006 0.000006 -13.174892 -186.337082 -159.303084 155.719024 2.240601 0.386799 -2.614103 138.212129 -33.558140 106.443000 0.000001 -0.000001 -18.592894 -113.308890 32.837866 132.876481 -0.000001 0.000000 -18.765799 5.361363 30.055821 18.420079 -2.014898 -0.220897 -2.615901 -117.962722 -16.032640 -95.084436 0.000000 0.000004 -18.633884 184.579401 28.106877 -180.607946 -0.000006 -0.000006 -18.285084 -6.463428 36.023972 -217.179607
-5.876400 25.213005 9.080612 6.117425 2.932785 4.288613 -0.204901 1.598104 7.917304 -6.603135 -3.781860 -2.606788 0.000000 0.000005 3.404104 -1.414355 -15.583447 -1.938415 -0.000000 -0.000003 7.928598 3.760509 16.079840 -3.500677 0.000000 0.000001 2.173908 0.931581 -4.797522 1.728670 2.833798 -1.396300 4.843307 46.054453 -16.226882 -6.669535 4.363601 0.000008 -0.000005 -92.809334 0.012824 -134.970890 -0.000001 -0.000001 -10.306897 260.105953 -160.054090 191.956866 0.000003 0.000002 -12.404903 -508.597906 183.060094 -149.742731 -2.354802 -1.897200 5.063108 3.847427 10.685834 -2.756864 -4.375798 0.000003 -0.000020 71.807206 -7.314953 165.938517 0.000002 0.000001 -10.004992 -255.342442 -172.174657 -199.256344 -0.000005 0.000006 -13.174891 -186.191585 -159.294355 155.606025 2.240601 0.386806 -2.614105 138.225120 -33.549131 106.442419 0.000001 -0.000001 -18.592892 -113.311185 32.826378 132.867219 -0.000001 0.000001 -18.765799 5.360525 30.042136 18.481392 -2.014899 -0.220895 -2.615898 -117.951438 -16.028752 -95.074239 -0.000000 0.000001 -18.633883 184.581600 28.106587 -180.605050 -0.000006 -0.000004 -18.285084 -6.462776 36.023739 -217.180864
-5.875700 25.212301 9.081306 6.110124 2.927003 4.299113 -0.204900 1.598103 7.917304 -6.595919 -3.763956 -2.611685 0.000000 0.000004 3.404105 -1.413873 -15.596660 -1.939173 0.000000 -0.000000 7.928601 3.666328 16.077210 -3.448523 -0.000000 0.000002 2.173908 0.985046 -4.789157 1.689192 2.833798 -1.396298 4.843305 45.994272 -16.196023 -6.764635 4.363604 0.000008 -0.000006 -92.755198 -0.052653 -134.987009 -0.000002 0.000001 -10.306902 260.062431 -160.039897 191.946183 0.000005 0.000002 -12.404898 -508.593644 183.064096 -149.678487 -2.354801 -1.897202 5.063101 4.104352 10.755017 -3.764129 -4.375800 0.000003 -0.000017 71.610429 -6.457207 166.332496 -0.000002 0.000005 -10.004998 -255.476041 -172.252699 -199.236782 -0.000005 0.000003 -13.174892 -186.092465 -159.270914 155.522533 2.240600 0.386803 -2.614102 138.238207 -33.540559 106.441231 0.000000 -0.000001 -18.592897 -113.324928 32.827983 132.864637 -0.000003 -0.000000 -18.765797 5.353132 30.037703 18.486921 -2.014898 -0.220894 -2.615899 -117.940059 -16.017386 -95.058345 -0.000001 0.000003 -18.633884 184.586682 28.105470 -180.601157 -0.000007 -0.000006 -18.285084 -6.462147 36.023989 -217.185057
-5.874499 25.211403 9.082008 6.103734 2.922256 4.314587 -0.204900 1.598103 7.917309 -6.590056 -3.747350 -2.622453 0.000000 0.000006 3.404103 -1.420121 -15.610464 -1.940888 -0.000000 0.000000 7.928602 3.585705 16.076162 -3.405062 0.000000 0.000001 2.173905 1.032979 -4.772777 1.658776 2.833798 -1.396299 4.843302 45.951593 -16.165130 -6.837609 4.363598 0.000003 -0.000006 -92.716881 -0.099274 -135.007459 -0.000004 0.000000 -10.306892 259.986069 -160.032644 191.922332 0.000005 0.000004 -12.404895 -508.557745 183.083043 -149.603136 -2.354802 -1.897201 5.063103 4.186113 10.827819 -3.848012 -4.375799 -0.000002 -0.000016 71.571858 -6.448461 166.432353 0.000002 0.000001 -10.004992 -255.520847 -172.298065 -199.212193 -0.000005 0.000004 -13.174883 -186.046170 -159.235684 155.481306 2.240599 0.386805 -2.614102 138.252222 -33.532247 106.441559 0.000000 0.000000 -18.592894 -113.348232 32.840724 132.868558 -0.000000 0.000002 -18.765799 5.339489 30.039940 18.446212 -2.014898 -0.220891 -2.615899 -117.929691 -16.002105 -95.039173 -0.000000 0.000003 -18.633883 184.591723 28.103358 -180.597237 -0.000006 -0.000005 -18.285088 -6.461727 36.025198 -217.191355
